# MagicaVoxel @ Ephtracy

# group
o 

# material
mtllib robo.mtl
usemtl palette

# normals
vn -1 0 0
vn 1 0 0
vn 0 0 1
vn 0 0 -1
vn 0 -1 0
vn 0 1 0

# texcoords
vt 0.611328 0.5
vt 0.880859 0.5
vt 0.904297 0.5

# verts
v -0.3 0.6 -0.6
v -0.3 0.6 -1.5
v -0.3 2.2 -0.6
v -0.3 2.2 -1.5
v 0.5 1.6 -0.6
v 0.5 1.6 -0.7
v 0.5 2.1 -0.6
v 0.5 2.1 -0.7
v -0.2 1.6 -0.6
v -0.2 1.6 -0.7
v -0.2 2.1 -0.6
v -0.2 2.1 -0.7
v 0.6 0.6 -0.6
v 0.6 0.6 -1.5
v 0.6 2.2 -0.6
v 0.6 2.2 -1.5
v -0.3 0.6 -0.6
v -0.3 2.2 -0.6
v -0.2 1.6 -0.6
v -0.2 2.1 -0.6
v 0.5 1.6 -0.6
v 0.5 2.1 -0.6
v 0.6 0.6 -0.6
v 0.6 2.2 -0.6
v -0.2 1.6 -0.7
v -0.2 2.1 -0.7
v -0.1 1.9 -0.7
v -0.1 2 -0.7
v 0 1.7 -0.7
v 0 1.8 -0.7
v 0 1.9 -0.7
v 0 2 -0.7
v 0.3 1.7 -0.7
v 0.3 1.8 -0.7
v 0.3 1.9 -0.7
v 0.3 2 -0.7
v 0.4 1.9 -0.7
v 0.4 2 -0.7
v 0.5 1.6 -0.7
v 0.5 2.1 -0.7
v -0.3 0.6 -1.5
v -0.3 2.2 -1.5
v 0.6 0.6 -1.5
v 0.6 2.2 -1.5
v -0.3 0.6 -0.6
v 0.6 0.6 -0.6
v -0.3 0.6 -1.5
v 0.6 0.6 -1.5
v -0.2 2.1 -0.6
v 0.5 2.1 -0.6
v -0.2 2.1 -0.7
v 0.5 2.1 -0.7
v -0.2 1.6 -0.6
v 0.5 1.6 -0.6
v -0.2 1.6 -0.7
v 0.5 1.6 -0.7
v -0.3 2.2 -0.6
v 0.6 2.2 -0.6
v -0.3 2.2 -1.5
v 0.6 2.2 -1.5

# faces
f 3/1/1 2/1/1 1/1/1
f 4/1/1 2/1/1 3/1/1
f 7/1/1 6/1/1 5/1/1
f 8/1/1 6/1/1 7/1/1
f 9/1/2 10/1/2 11/1/2
f 11/1/2 10/1/2 12/1/2
f 13/1/2 14/1/2 15/1/2
f 15/1/2 14/1/2 16/1/2
f 19/1/3 18/1/3 17/1/3
f 20/1/3 18/1/3 19/1/3
f 21/1/3 19/1/3 17/1/3
f 22/1/3 18/1/3 20/1/3
f 23/1/3 21/1/3 17/1/3
f 23/1/3 22/1/3 21/1/3
f 24/1/3 18/1/3 22/1/3
f 24/1/3 22/1/3 23/1/3
f 27/3/3 26/3/3 25/3/3
f 28/3/3 26/3/3 27/3/3
f 29/3/3 27/3/3 25/3/3
f 30/3/3 27/3/3 29/3/3
f 31/2/3 28/2/3 27/2/3
f 31/3/3 27/3/3 30/3/3
f 32/3/3 26/3/3 28/3/3
f 32/2/3 28/2/3 31/2/3
f 33/2/3 30/2/3 29/2/3
f 33/3/3 29/3/3 25/3/3
f 34/3/3 31/3/3 30/3/3
f 34/2/3 30/2/3 33/2/3
f 34/3/3 32/3/3 31/3/3
f 35/3/3 32/3/3 34/3/3
f 36/3/3 26/3/3 32/3/3
f 36/3/3 32/3/3 35/3/3
f 37/3/3 35/3/3 34/3/3
f 37/3/3 34/3/3 33/3/3
f 37/2/3 36/2/3 35/2/3
f 38/3/3 26/3/3 36/3/3
f 38/2/3 36/2/3 37/2/3
f 39/3/3 33/3/3 25/3/3
f 39/3/3 37/3/3 33/3/3
f 39/3/3 38/3/3 37/3/3
f 40/3/3 26/3/3 38/3/3
f 40/3/3 38/3/3 39/3/3
f 41/1/4 42/1/4 43/1/4
f 43/1/4 42/1/4 44/1/4
f 47/1/5 46/1/5 45/1/5
f 48/1/5 46/1/5 47/1/5
f 51/1/5 50/1/5 49/1/5
f 52/1/5 50/1/5 51/1/5
f 53/1/6 54/1/6 55/1/6
f 55/1/6 54/1/6 56/1/6
f 57/1/6 58/1/6 59/1/6
f 59/1/6 58/1/6 60/1/6
